<?xml version="1.0" encoding="UTF-8" standalone="no"?><!DOCTYPE svg PUBLIC "-//W3C//DTD SVG 1.1//EN" "http://www.w3.org/Graphics/SVG/1.1/DTD/svg11.dtd"><svg width="100%" height="100%" viewBox="0 0 45 50" version="1.1" xmlns="http://www.w3.org/2000/svg" xmlns:xlink="http://www.w3.org/1999/xlink" xml:space="preserve" xmlns:serif="http://www.serif.com/" style="fill-rule:evenodd;clip-rule:evenodd;stroke-linejoin:round;stroke-miterlimit:2;"><g><path d="M33.594,30.713l1.692,-0.576c2.386,-1.417 4.066,-3.314 5.412,-5.439c1.134,-1.588 1.879,-4.079 2.002,-8.009c0.16,-2.718 -0.504,-5.362 -1.607,-7.966c-1.253,-2.267 -3.116,-4.341 -6.075,-6.068c-2.483,-1.424 -5.74,-2.575 -12.054,-2.655l-22.964,0l0,30.704l33.594,0.009Zm-13.638,-23.609c4.965,0 8.995,4.009 8.995,8.948c0,4.938 -4.03,8.948 -8.995,8.948c-4.965,0 -8.995,-4.01 -8.995,-8.948c0,-4.939 4.03,-8.948 8.995,-8.948Z" style="fill:#003c82;"/><path d="M17.396,30.709c0.278,0.109 0.544,0.215 0.492,0.239c-0.804,0.374 -2.435,-0.574 -3.177,0.299c-0.086,0.1 0.254,0.044 0.381,0.07c0.602,0.125 1.807,-0.147 1.781,0.488c-0.024,0.596 -1.157,0.03 -1.728,0.114c-0.244,0.036 -0.849,0.251 -0.639,0.383c0.568,0.358 1.33,0.059 1.99,0.14c0.294,0.037 1.124,0.239 0.836,0.309c-0.889,0.216 -1.825,-0.103 -2.737,-0.088c-0.435,0.008 -1.186,-0.046 -1.247,0.399c-0.048,0.347 0.665,0.158 1.003,0.169c0.95,0.029 1.902,-0.036 2.852,0c0.386,0.014 1.462,0.019 1.136,0.233c-0.77,0.507 -1.821,0.16 -2.734,0.183c-0.283,0.007 -0.838,-0.088 -0.827,0.205c0.009,0.238 0.46,0.017 0.689,0.035c0.976,0.078 0.935,0.097 1.91,0.275c0.21,0.039 0.828,0.078 0.624,0.143c-0.425,0.136 -1.308,-0.032 -1.612,0.364c-0.099,0.129 0.623,0.053 0.469,0.1c-0.776,0.234 -0.771,0.119 -1.516,0.539c-0.178,0.1 -0.8,0.023 -0.603,0.072c0.416,0.103 2.275,0.038 2.006,0.479c-0.287,0.473 -1.053,0.249 -1.58,0.371c-0.2,0.046 -0.78,0.174 -0.579,0.213c0.793,0.153 1.903,-0.314 2.654,-0.048c0.142,0.05 0.373,0.201 0.306,0.34c-0.337,0.695 -2.669,0.444 -3.509,0.525c-0.291,0.028 -1.133,0.004 -0.868,0.131c-0.161,-0.003 -0.323,-0.026 -0.482,-0.006c-1.981,0.25 0.013,0.869 0.767,1.113c0.207,0.066 0.616,-0.14 0.646,0.082c0.03,0.228 -0.449,-0.004 -0.668,0.034c-0.695,0.122 -1.693,-0.04 -2.035,0.597c-0.046,0.085 1.042,0.813 0.945,0.862c-0.851,0.429 -2.217,0.013 -3.08,0.686c-0.082,0.063 0.195,0.063 0.296,0.074c0.403,0.047 0.81,0.048 1.212,0.1c0.635,0.082 2.259,0.332 2.924,0.605c0.396,0.163 1.383,0.546 1.026,0.788c-0.587,0.396 -1.399,0.1 -2.1,0.118c-0.057,0.001 -4.442,-0.174 -5.182,0.064c-0.485,0.155 0.16,0.471 0.181,0.479c0.953,0.374 1.397,0.432 2.418,0.348c2.14,0.506 4.203,0.79 6.416,0.823c-0.022,0.546 -0.987,0.412 -1.507,0.512c-1.434,0.274 -2.869,0.538 -4.303,0.814c-0.674,0.129 -1.684,-0.015 -1.965,0.632c-0.121,0.28 0.587,0.099 0.884,0.114c0.774,0.04 1.55,0.048 2.323,0.103c0.343,0.025 1.277,-0.015 1.011,0.21c-0.522,0.44 -2.057,0.304 -2.65,0.44c-0.28,0.064 -0.919,0.13 -0.775,0.387c0.168,0.302 0.66,0.144 0.99,0.215c0.599,0.129 1.195,0.272 1.791,0.418c0.283,0.069 1.089,0.221 0.815,0.323c-0.324,0.12 -3.142,-0.025 -3.028,0.733c0.022,0.148 0.296,0.01 0.431,0.068c0.295,0.127 0.531,0.393 0.84,0.48c1.493,0.421 2.86,0.096 4.321,0.393l-15.631,0l0,-19.296l17.396,0.005Zm4.762,0.001l11.436,0.003l10.698,19.287l-15.922,0c0.319,-0.234 -0.193,-0.721 -0.984,-0.822c-0.423,-0.054 -1.065,-0.007 -1.212,-0.42c-0.095,-0.266 0.551,-0.037 0.813,-0.121c0.904,-0.292 2.042,-0.229 3.122,-0.39c0.308,-0.046 0.587,-0.212 0.883,-0.306c0.155,-0.05 0.636,-0.071 0.476,-0.096c-1.925,-0.3 -3.759,-0.698 -5.705,-0.979c-0.155,-0.022 0.31,-0.037 0.466,-0.037c0.362,-0.001 0.729,0.059 1.088,0.005c0.109,-0.017 0.358,-0.153 0.263,-0.211c-0.927,-0.562 -2.135,-0.261 -3.202,-0.391c-0.422,-0.052 -0.846,-0.087 -1.267,-0.152c-0.126,-0.019 -0.41,0.024 -0.37,-0.102c0.202,-0.629 1.279,-0.111 1.919,-0.158c2.507,-0.186 2.404,-0.425 4.883,-0.887c0.332,-0.062 0.674,-0.043 1.012,-0.046c0.15,-0.001 0.488,0.182 0.448,0.033c-0.044,-0.168 -0.317,-0.115 -0.481,-0.157c-0.565,-0.142 -1.125,-0.317 -1.702,-0.394c-1.261,-0.169 -3.156,-0.04 -4.358,-0.028c-0.064,0.003 -0.193,0.002 -0.193,0.002l0.192,-0.002l-0.24,0.002l0.241,-0.002c1.172,-0.046 1.975,-0.474 3.142,-0.631c1.014,-0.136 2.042,-0.1 3.062,-0.169c0.623,-0.042 2.5,0.143 3.161,-0.101c0.194,-0.072 -0.169,-0.446 -0.363,-0.516c-0.61,-0.222 -1.25,-0.377 -1.894,-0.44c-2.638,-0.26 -5.466,-0.211 -8.116,-0.199c-0.191,0 0.38,-0.032 0.571,-0.046c0.379,-0.028 0.756,-0.089 1.136,-0.105c1.706,-0.074 4.037,-0.758 5.736,-0.476c0.105,0.055 0.111,0.018 0,0c-1.058,-0.558 -2.286,-0.679 -3.452,-0.911c-0.612,-0.122 -1.248,-0.065 -1.862,-0.177c-0.195,-0.036 -0.396,-0.121 -0.538,-0.265c-0.259,-0.263 0.727,-0.045 1.09,-0.058c1.018,-0.036 2.039,-0.024 3.05,-0.141c0.456,-0.053 1.568,-0.186 1.271,-0.548c-0.417,-0.507 -1.259,-0.291 -1.898,-0.374c-1.294,-0.168 -2.586,-0.352 -3.884,-0.482c-0.541,-0.054 -1.111,0.169 -1.63,0.003c-0.222,-0.071 0.458,-0.074 0.689,-0.099c0.622,-0.068 1.618,0.178 1.831,-0.43c0.068,-0.195 -2.776,-0.562 -2.792,-0.564c0.121,-0.04 0.393,-0.211 0.279,-0.271c1.567,0.015 1.515,0.136 3.111,0.001c0.686,-0.059 0.912,-0.65 0.225,-0.65l-0.5,0c-0.807,0 -0.757,-0.154 -1.595,-0.192c-0.64,-0.028 -1.282,0.006 -1.921,0.039c-3.381,0.178 1.016,-0.046 1.546,-0.778c0.28,-0.388 -1.636,-0.179 -1.308,-0.524c0.074,-0.078 0.207,-0.045 0.312,-0.055c0.294,-0.029 0.595,0 0.884,-0.061c0.997,-0.211 -1.18,-0.425 -1.169,-0.634c0.026,-0.499 0.967,0.01 1.451,0.012c0.141,0.001 0.499,0.063 0.419,-0.057c-0.402,-0.603 -2.246,-0.727 -2.891,-0.88c-0.273,-0.065 -0.866,0.075 -0.815,-0.209c0.066,-0.367 0.717,-0.085 1.078,-0.101c1.133,-0.051 1.065,-0.141 2.199,-0.191c0.414,-0.018 1.168,0.278 1.234,-0.144c0.07,-0.44 -0.818,-0.305 -1.247,-0.348c-1.097,-0.109 -1.003,-0.057 -2.105,-0.068c-0.355,-0.004 -0.74,0.221 -1.064,0.07c-0.022,-0.011 2.431,-0.541 2.846,-0.86c0.079,-0.06 -1.063,-0.326 -1.13,-0.385c-0.127,-0.11 0.352,-0.15 0.391,-0.317c0.021,-0.09 -0.584,-0.195 -0.844,-0.299Z" style="fill:#00558e;"/><path d="M0,26.616l0,4.088l33.594,0.009c2.154,-0.434 4.353,-2.048 5.945,-4.225c1.364,-1.687 2.194,-3.447 2.622,-5.263c-2.085,0.104 -7.117,1.874 -9.351,2.947c-2.78,0.358 -6.849,-1.44 -9.126,-2.753c-2.528,-0.092 -5.115,0.023 -7.817,0.546c-2.381,0.383 -3.857,1.343 -7.045,2.563c-4.446,1.278 -7.13,1.875 -8.822,2.088Z" style="fill:#05034f;"/><path d="M0,31.125l0,-4.088l33.602,-0.009c0.698,0.141 -0.008,3.685 -0.008,3.685l2.29,4.118c0.053,-0.104 -2.238,-1.022 -3.074,-1.262c-2.78,-0.358 -6.849,1.44 -9.126,2.753c-2.528,0.092 -5.115,-0.023 -7.817,-0.546c-2.381,-0.383 -3.857,-1.343 -7.045,-2.563c-4.446,-1.278 -7.13,-1.875 -8.822,-2.088Z" style="fill:#05034f;fill-opacity:0.53;"/></g></svg>