<?xml version="1.0" encoding="UTF-8" standalone="no"?><!DOCTYPE svg PUBLIC "-//W3C//DTD SVG 1.1//EN" "http://www.w3.org/Graphics/SVG/1.1/DTD/svg11.dtd"><svg width="100%" height="100%" viewBox="0 0 139 151" version="1.1" xmlns="http://www.w3.org/2000/svg" xmlns:xlink="http://www.w3.org/1999/xlink" xml:space="preserve" xmlns:serif="http://www.serif.com/" style="fill-rule:evenodd;clip-rule:evenodd;stroke-linejoin:round;stroke-miterlimit:2;"><path d="M32.873,150.046l-32.873,0l0,-150.046l47.415,0c6.585,0 13.774,0.712 21.567,2.137c7.793,1.425 15.146,3.705 22.061,6.84c6.915,3.135 12.567,7.232 16.957,12.29c4.391,5.059 6.586,11.293 6.586,18.702c0,5.415 -1.317,10.652 -3.951,15.71c-2.635,5.059 -6.75,9.583 -12.348,13.573c-5.598,3.99 -12.896,7.16 -21.896,9.511c-0.972,0.254 -1.969,0.494 -2.989,0.721l65.221,70.562l-57.132,0c-1.217,-4.95 -2.733,-10.787 -3.974,-14.54c-7.281,-22.02 -21.097,-32.609 -32.8,-47.518c-1.276,-1.626 -1.543,-3.508 -1.384,-5.179c0.158,-1.671 0.938,-3.195 2.335,-4.847c3.009,-3.556 16.668,-10.893 19.634,-17.37c10.412,-1.807 18.373,-11.465 18.373,-23.092c0,-12.913 -9.817,-23.396 -21.909,-23.396c-12.092,0 -21.909,10.483 -21.909,23.396c0,10.204 6.132,18.892 14.672,22.087c-2.593,2.45 -19.18,9.887 -19.703,10.123c-3.633,1.637 -17.868,5.714 -15.459,17.091c3.123,14.756 13.38,21.969 16.891,36.699c1.987,8.334 -0.166,16.645 -2.446,24.17c-0.031,0.104 -0.418,1.082 -0.939,2.376Z" style="fill:#46b1ef;fill-rule:nonzero;"/></svg>