<?xml version="1.0" encoding="UTF-8" standalone="no"?><!DOCTYPE svg PUBLIC "-//W3C//DTD SVG 1.1//EN" "http://www.w3.org/Graphics/SVG/1.1/DTD/svg11.dtd"><svg width="100%" height="100%" viewBox="0 0 50 50" version="1.1" xmlns="http://www.w3.org/2000/svg" xmlns:xlink="http://www.w3.org/1999/xlink" xml:space="preserve" xmlns:serif="http://www.serif.com/" style="fill-rule:evenodd;clip-rule:evenodd;stroke-linejoin:round;stroke-miterlimit:2;"><rect id="Artboard1" x="0" y="0" width="50" height="50" style="fill:none;"/><g id="Artboard11" serif:id="Artboard1"><g id="Sun"><path d="M26.373,9.08c0,-0.758 -0.615,-1.373 -1.373,-1.373c-0.758,0 -1.373,0.615 -1.373,1.373l0,2.972c0,0.757 0.615,1.372 1.373,1.372c0.758,0 1.373,-0.615 1.373,-1.372l0,-2.972Z"/><path d="M26.373,37.948c0,-0.757 -0.615,-1.372 -1.373,-1.372c-0.758,0 -1.373,0.615 -1.373,1.372l0,2.972c0,0.758 0.615,1.373 1.373,1.373c0.758,0 1.373,-0.615 1.373,-1.373l0,-2.972Z"/><path d="M37.228,14.714c0.536,-0.536 0.536,-1.406 0,-1.942c-0.536,-0.536 -1.406,-0.536 -1.942,0l-2.101,2.101c-0.536,0.536 -0.536,1.406 0,1.942c0.536,0.536 1.406,0.536 1.942,0l2.101,-2.101Z"/><path d="M16.815,35.127c0.536,-0.536 0.536,-1.406 0,-1.942c-0.536,-0.536 -1.406,-0.536 -1.942,0l-2.101,2.101c-0.536,0.536 -0.536,1.406 0,1.942c0.536,0.536 1.406,0.536 1.942,0l2.101,-2.101Z"/><path d="M40.92,26.373c0.758,0 1.373,-0.615 1.373,-1.373c0,-0.758 -0.615,-1.373 -1.373,-1.373l-2.972,0c-0.757,0 -1.372,0.615 -1.372,1.373c0,0.758 0.615,1.373 1.372,1.373l2.972,0Z"/><path d="M12.052,26.373c0.757,0 1.372,-0.615 1.372,-1.373c0,-0.758 -0.615,-1.373 -1.372,-1.373l-2.972,0c-0.758,0 -1.373,0.615 -1.373,1.373c0,0.758 0.615,1.373 1.373,1.373l2.972,0Z"/><path d="M35.286,37.228c0.536,0.536 1.406,0.536 1.942,0c0.536,-0.536 0.536,-1.406 0,-1.942l-2.101,-2.101c-0.536,-0.536 -1.406,-0.536 -1.942,0c-0.536,0.536 -0.536,1.406 0,1.942l2.101,2.101Z"/><path d="M14.873,16.815c0.536,0.536 1.406,0.536 1.942,0c0.536,-0.536 0.536,-1.406 0,-1.942l-2.101,-2.101c-0.536,-0.536 -1.406,-0.536 -1.942,0c-0.536,0.536 -0.536,1.406 0,1.942l2.101,2.101Z"/><circle cx="25.084" cy="25.022" r="8.667"/></g><path id="Moon" d="M21.4,7.707c-2.087,2.402 -3.351,5.537 -3.351,8.965c0,7.549 6.129,13.678 13.678,13.678c4.359,0 8.245,-2.043 10.75,-5.224c-0.166,9.503 -7.933,17.167 -17.476,17.167c-9.646,0 -17.478,-7.832 -17.478,-17.479c0,-8.412 5.955,-15.444 13.877,-17.107Z"/></g></svg>