<?xml-stylesheet type="text/css" href="animation.css" ?>
<svg id="svg" xmlns="http://www.w3.org/2000/svg" viewBox="0 0 400 195"><style>.st0{fill:#3a51a3}.st1{fill:#cdd1d9}</style>
    <g class="logo">
        <path class="st0 blueLine" d="M79.4 190.3c-5.5-5.1-11-10.1-16.5-15.2V57.9c5.4 5 10.9 10 16.4 15 .1 39.2.1 78.3.1 117.4z"/>
        <path class="st0 blueLine1" d="M24 190.3c-5.4-5.3-10.9-10.5-16.3-15.8V4.7L24 20.4v169.9z"/>
        <path class="st1 grayR" d="M78.8 27.4l3 .1c1.4.1 2.6.2 3.6.3 0 0 4.8.9 8.9 3.4 10 6.1 11.2 22.2 11.4 25.6.3 3.7.7 10.4-2.4 18.2-1.4 3.5-4.2 10.5-11.4 15.5-.8.6-6.2 4.1-13.1 5-1.6.2-3.6.3-4.2.3H52.8l10.2 12V134L30 95.9V77.5h45c3.6-1.1 7.8-1.9 10.3-5.8 2.7-4.3 3.1-8.6 3-10.2 0-1.5-.4-6.4-4.2-10.7-2.1-2.4-4.5-3.7-6-4.3H43.5v31.1H29.9V27.3l48.9.1z"/>
        <path class="st1 grayK" d="M128.2 94.1h-20.3l-22.4 25.6v40.4l21.3 24.5h22l-38.6-45.3z"/>
    </g>
    <g class="name">
        <path d="M145.7 132.8v.3c-.7.3-1.5.5-2.2.5l-.3-.2c-1.6-2.5-3.1-4.9-4.4-7.2h-3.5v1.1l.1 6H133l.2-5.8-.2-13.5h5.9c1.9 0 3.4.5 4.4 1.4 1 1 1.6 2.3 1.6 4.1 0 1.3-.3 2.5-1 3.6s-1.7 1.9-2.9 2.5c1 2.1 2.6 4.6 4.7 7.2zm-10.6-8.7l3.6.1c2.3-.6 3.4-2.1 3.4-4.5 0-1.2-.3-2.1-1-2.8-.7-.6-1.7-.9-3-1l-2.9.1-.1 8.1zM153.8 129l.1 4.3h-2.3l.1-4.3v-.9l-5.1-9.8h2.5l.3.9 3.4 6.5h.2l3.7-6.4.4-1h2.4l-5.6 9.8-.1.9zM173.1 133.4h-2.3l-.4-1.6-.8-2.2H162.8l-.8 2.1-.4 1.7h-2.2l5.8-15h2.6l5.3 15zm-4.1-5.7l-2.5-7.1h-.2l-2.7 7.1h5.4zM189.3 128.9v4.5h-2.4l-7.9-11.5h-.2v6.5l.1 5h-2.1l.1-4.4-.1-10.6h2.4l7.9 11.5h.2l-.1-11.4 2.1-.2v10.6zM202.2 127.3l.1 6h-2.4l.1-5.8-.1-13.5h2.4l-.1 13.3zm3-4.2c2.7 3.5 5.5 6.7 8.4 9.7v.3c-.6.2-1.4.3-2.3.5l-.3-.2c-3.2-3.6-6-7-8.3-10.3v-.1l6.5-7.3 1.2-1.7h2.7l-7.9 9.1zM227.9 133.4h-2.3l-.4-1.6-.8-2.2H217.6l-.8 2.1-.4 1.7h-2.2l5.8-15h2.6l5.3 15zm-4-5.7l-2.5-7.1h-.2l-2.7 7.1h5.4zM242.8 120.1c1.2 1.2 1.8 3 1.8 5.3 0 2.6-.7 4.7-2 6.1-1.3 1.4-3.2 2.1-5.7 2.1h-2.5c-1 0-1.9-.1-2.8-.1l.1-4.5-.1-10.5 5.9-.1c2.3-.2 4.1.4 5.3 1.7zm-1.8 10.1c.9-1 1.3-2.4 1.3-4.4 0-1.9-.4-3.4-1.2-4.3-.8-.9-2.1-1.4-3.7-1.4-1 0-2.1 0-3.5.1l-.1 8.4v2.8c.6 0 1.2.1 1.8.1.6 0 1.2.1 1.6.1 1.7.1 2.9-.4 3.8-1.4zM256.8 131.7l-.2 1.7h-8l.1-4.5-.1-10.5h2.3l-.1 10.3.1 2.8h5.8l.1.2zM262.3 128.7l.1 4.7h-2.2l.1-4.5-.1-10.5h2.3l-.2 10.3zM277.6 119.2l-.4 2.1-.3.1c-.5-.4-1.1-.8-1.7-1-.7-.2-1.4-.4-2.1-.4-1.5 0-2.6.5-3.4 1.4-.8 1-1.2 2.4-1.2 4.3s.4 3.4 1.2 4.4c.8 1 1.9 1.5 3.4 1.5.7 0 1.5-.1 2.2-.4.7-.3 1.4-.6 2-1l.3.1-.2 2.1c-1.4.7-2.8 1.1-4.3 1.1-2.2 0-3.9-.7-5.1-2-1.2-1.3-1.8-3.2-1.8-5.6 0-2.5.6-4.4 1.9-5.7 1.3-1.3 3-2 5.3-2 1.5 0 3 .3 4.2 1zM283.5 128.7l.1 4.7h-2.2l.1-4.5-.1-10.5h2.3l-.2 10.3zm2.7-3.3c2.1 2.6 4.4 5.1 6.8 7.5l-.1.3c-.6.2-1.3.4-2.2.5l-.4-.2c-2.6-2.9-4.8-5.5-6.7-8v-.2l5.2-5.7 1-1.3h2.7l-6.3 7.1z"/></g>
    <g class="title">
        <path d="M145.6 147.4c1.4 1.6 2.2 3.8 2.2 6.8 0 3.3-.7 5.9-2.2 7.7-1.5 1.8-3.6 2.7-6.4 2.7h-2.7c-1.1 0-2.1-.1-3-.1v-19.2l6.1-.2c2.4-.1 4.5.7 6 2.3zm-.6 14c1.4-1.7 2.1-4.1 2.1-7.2 0-2.8-.7-4.9-2-6.3-1.3-1.5-3.3-2.2-5.8-2.2h-2.5c-1.1 0-2 .1-2.9.1v18c.8 0 1.8.1 2.8.1h2.4c2.5.1 4.5-.8 5.9-2.5zM160.3 163.9l-.1.5h-7.8v-14.8h7.7l.1.1-.1.5H153v6.3h5.9l.1.1-.1.5H153v6.8h7.3zM171.4 150.2l-.1.5h-.2c-.9-.4-1.8-.7-2.8-.7-.8 0-1.5.2-2.1.5-.6.3-1 .7-1.3 1.2-.3.5-.5 1-.5 1.5s.2 1 .5 1.4c.3.4.7.7 1.1 1 .4.3 1.1.6 1.9.9.9.4 1.6.7 2.1 1.1.5.3 1 .7 1.4 1.2.4.5.6 1.1.6 1.8s-.2 1.3-.6 1.9c-.4.6-.9 1.1-1.7 1.4-.7.4-1.5.5-2.4.5-.6 0-1.3-.1-2-.3-.7-.2-1.3-.5-1.8-.8v-.6h.2c.5.4 1.1.6 1.7.8.7.2 1.3.3 1.9.3.8 0 1.5-.2 2.1-.5.6-.3 1.1-.7 1.4-1.2.3-.5.5-1 .5-1.6 0-.6-.2-1-.5-1.5-.3-.4-.7-.8-1.2-1-.5-.3-1.1-.6-1.9-1-.9-.4-1.5-.8-2.1-1.1-.5-.3-.9-.7-1.3-1.2s-.5-1-.5-1.7.2-1.3.6-1.8c.4-.6.9-1 1.6-1.3.7-.3 1.5-.5 2.3-.5 1 .1 2.1.4 3.1.8zM177.6 164.4h-.6v-14.8h.6v14.8zM191.5 149.8c.8.2 1.5.5 2.2.9l-.2.5h-.2c-1.5-.8-2.9-1.2-4.1-1.2-2.2 0-3.8.6-5 1.8-1.2 1.2-1.7 3-1.7 5.3 0 2.2.5 3.9 1.5 5 1 1.2 2.4 1.7 4.3 1.7.8 0 1.5 0 2.1-.1.6-.1 1.5-.3 2.5-.5v-4.4l.6-.1v4.9c-1.1.3-2.1.5-2.8.6-.7.1-1.5.2-2.4.2-2.1 0-3.7-.6-4.8-1.9-1.1-1.3-1.7-3.1-1.7-5.5 0-2.5.6-4.3 1.9-5.7 1.3-1.3 3.1-2 5.4-2 .9.2 1.6.3 2.4.5zM210.7 160.3v4.1h-.7l-9.8-13.6h-.1v13.6h-.6v-14.8h.6l9.8 13.6h.1v-13.6l.6-.1.1 10.8zM225.1 163.9l-.1.5h-7.8v-14.8h7.7l.1.1-.1.5h-7.1v6.3h5.9l.1.1-.1.5h-5.9v6.8h7.3zM238.6 164.3v.1l-.4.2-.2-.1c-1.7-2.1-3.2-4.2-4.5-6.2h-3.3v6.1h-.6v-14.8h3.6c1.4 0 2.6.4 3.3 1.1.8.7 1.2 1.7 1.2 3 0 1.1-.3 2.1-.9 2.9-.6.8-1.5 1.4-2.7 1.7 1.3 1.9 2.8 3.9 4.5 6zm-8.4-6.5h3.5c1.1-.3 1.9-.7 2.5-1.5.6-.7.9-1.6.9-2.7s-.3-2-1-2.6c-.6-.6-1.6-.9-2.8-1h-3.1v7.8zM271.1 153.6c-.4.9-.8 1.6-1.3 2-.5.4-1.2.6-2.1.7-.7 0-1.9-.2-3.7-.6.1 1.8-.3 3.4-1 4.7-.7 1.4-1.7 2.4-3.1 3.2-1.3.7-2.9 1.1-4.7 1.1-1.5 0-2.9-.3-4-1s-2.1-1.6-2.7-2.9c-.6-1.2-1-2.7-1-4.3 0-1.3.2-2.6.7-3.6.5-1.1 1.1-1.9 1.9-2.5.8-.6 1.7-.9 2.6-.9.9 0 1.7.2 2.2.7.6.5.8 1 .8 1.8 0 .6-.2 1.2-.6 1.8 2.1-1.4 4-3.1 5.6-4.9 1.6-1.9 2.9-3.8 3.8-5.8h.1c.1.2.2.4.2.6-1 2.1-2.3 4.1-4.1 6-1.7 1.9-3.7 3.6-5.9 5.1-2.2 1.5-4.5 2.6-6.9 3.3.3 1.9 1 3.4 2.3 4.4 1.2 1.1 2.8 1.6 4.7 1.6 1.7 0 3.2-.4 4.4-1.1s2.2-1.7 2.9-3c.7-1.3.9-2.8.9-4.4-1.2-.3-2-.4-2.5-.4-.7 0-1.3.2-1.8.6-.5.4-.8 1-1.1 1.8l-.2.1-.4-.3c.4-.9.8-1.6 1.3-2 .5-.4 1.2-.6 2.1-.7.3 0 .8.1 1.4.2.6.1 1.2.2 1.8.4.7.1 1.3.3 2 .4.7.1 1.2.2 1.6.2.7 0 1.3-.2 1.8-.6.5-.4.8-1 1.1-1.8l.2-.1.7.2zm-20.6-2.7c-.7.5-1.3 1.3-1.7 2.3-.4 1-.6 2.1-.6 3.4v.9c2-.7 3.9-1.6 5.8-2.7.5-.4.9-.9 1.1-1.4.2-.5.3-.9.2-1.4 0-.5-.3-1-.7-1.3-.4-.3-1-.5-1.7-.5-.9-.1-1.7.1-2.4.7zM290.6 147.4c1.4 1.6 2.2 3.8 2.2 6.8 0 3.3-.7 5.9-2.2 7.7-1.5 1.8-3.6 2.7-6.4 2.7h-2.7c-1.1 0-2.1-.1-3-.1v-19.2l6.1-.2c2.5-.1 4.5.7 6 2.3zm-.5 14c1.4-1.7 2.1-4.1 2.1-7.2 0-2.8-.7-4.9-2-6.3-1.3-1.5-3.3-2.2-5.8-2.2h-2.5c-1.1 0-2 .1-2.9.1v18c.8 0 1.8.1 2.8.1h2.4c2.5.1 4.5-.8 5.9-2.5zM305.4 163.9l-.1.5h-7.8v-14.8h7.7l.1.1-.1.5h-7.1v6.3h5.9l.1.1-.1.5h-5.9v6.8h7.3zM314 164.4h-.6l-5.7-14.8h.7l.3 1.1 5 12.8h.1l5.4-12.8.4-1.1h.7l-6.3 14.8zM332.3 163.9l-.1.5h-7.8v-14.8h7.7l.1.1-.1.5H325v6.3h5.9l.1.1-.1.5H325v6.8h7.3zM343.9 163.9l-.1.5h-7v-14.8h.6v14.2l6.5.1zM356.6 151.4c1.1 1.3 1.7 3.1 1.7 5.4 0 2.5-.6 4.4-1.7 5.8-1.2 1.3-2.8 2-5 2-2.1 0-3.7-.6-4.8-1.9-1.1-1.3-1.7-3.1-1.7-5.5s.6-4.3 1.7-5.6c1.2-1.3 2.8-2 5-2 2.1-.1 3.7.5 4.8 1.8zm-9.3.5c-1 1.2-1.6 2.9-1.6 5.2 0 2.3.5 4 1.5 5.2 1 1.2 2.4 1.8 4.3 1.8 2 0 3.5-.6 4.5-1.8 1.1-1.2 1.6-3 1.6-5.3 0-2.2-.5-3.8-1.5-5-1-1.2-2.5-1.7-4.4-1.7-1.9-.2-3.4.4-4.4 1.6zM370.2 150.6c.8.7 1.2 1.7 1.2 3.1 0 1.6-.5 2.8-1.4 3.7-.9.9-2.2 1.3-4 1.3h-2.2v5.7h-.6v-14.8h3.6c1.5 0 2.6.3 3.4 1zm-.5 6.2c.7-.8 1-1.8 1-3 0-1.1-.3-2-1-2.6-.6-.6-1.6-1-2.8-1h-3.1v8h2.9c1.4-.2 2.4-.7 3-1.4zM384.4 163.9l-.1.5h-7.8v-14.8h7.7l.1.1-.1.5h-7.1v6.3h5.9l.1.1-.1.5h-5.9v6.8h7.3zM397.9 164.3v.1l-.4.2-.2-.1c-1.7-2.1-3.2-4.2-4.5-6.2h-3.3v6.1h-.6v-14.8h3.6c1.4 0 2.6.4 3.3 1.1.8.7 1.2 1.7 1.2 3 0 1.1-.3 2.1-.9 2.9-.6.8-1.5 1.4-2.7 1.7 1.3 1.9 2.8 3.9 4.5 6zm-8.4-6.5h3.5c1.1-.3 1.9-.7 2.5-1.5.6-.7.9-1.6.9-2.7s-.3-2-1-2.6c-.6-.6-1.6-.9-2.8-1h-3.1v7.8z"/>
    </g>
</svg>