<?xml version="1.0" encoding="utf-8"?>
<!-- Generator: Adobe Illustrator 22.0.1, SVG Export Plug-In . SVG Version: 6.00 Build 0)  -->
<svg version="1.1" id="Layer_1" xmlns="http://www.w3.org/2000/svg" xmlns:xlink="http://www.w3.org/1999/xlink" x="0px" y="0px"
	 viewBox="0 0 612 792" style="enable-background:new 0 0 612 792;" xml:space="preserve">
<style type="text/css">
	.st0{fill:#3A51A3;}
	.st1{fill:#CDD1D9;}
</style>
<g>
	<path class="st0" d="M354,781c-22.6-20.9-45.2-41.7-67.9-62.6c0-160.8,0.1-321.6,0.1-482.4c22.4,20.6,44.8,41.2,67.3,61.8
		C353.7,458.9,353.9,619.9,354,781z"/>
	<path class="st0" d="M125.9,781c-22.4-21.7-44.8-43.4-67.2-65.1c0-233,0-465.9,0-698.9c22.4,21.6,44.9,43.2,67.3,64.8
		C126,314.9,126,547.9,125.9,781z"/>
	<path class="st1" d="M351.2,110.5l12.5,0.5c5.8,0.3,10.8,0.7,14.8,1.1c0,0,19.6,3.7,36.5,14c41,25,46,91.5,47.1,105.5
		c1.2,15.4,3,42.8-9.7,75c-5.7,14.4-17.3,43.4-47,63.9c-3.3,2.3-25.4,17-53.9,20.6c-6.5,0.8-15,1.3-17.1,1.4c-14.3,0-28.6,0-42.9,0
		h-47.2l41.9,48.8v108c-45.3-52.3-90.6-104.5-135.9-156.7v-76h55.9h129.6c14.9-4.5,32.2-8,42.2-23.9c11.1-17.7,12.6-35.4,12.4-41.9
		c-0.2-6-1.5-26.4-17.1-44.2c-8.8-10-18.7-15.2-24.6-17.8c-47.5,0-94.9,0-142.4,0l-0.1,127.8h-55.9V110L351.2,110.5z"/>
	<polygon class="st1" points="554.6,385 471.1,385 379.1,490.4 379.1,656.6 466.4,757.3 557.2,757.3 398.1,570.8 	"/>
</g>
</svg>
