<?xml version="1.0" encoding="utf-8"?>
<!-- Generator: Adobe Illustrator 22.0.1, SVG Export Plug-In . SVG Version: 6.00 Build 0)  -->
<svg version="1.1" id="svg" xmlns="http://www.w3.org/2000/svg" xmlns:xlink="http://www.w3.org/1999/xlink" x="0px" y="0px"
	 viewBox="0 0 270 260" style="enable-background:new 0 0 270 260;" xml:space="preserve">
<style type="text/css">
	.st0{fill:#FFFFFF;}
</style>
<g>
	<path class="st0" d="M148.6,189.8c-5.5-5.1-11-10.1-16.5-15.2V57.4c5.4,5,10.9,10,16.4,15C148.6,111.6,148.6,150.7,148.6,189.8z"/>
	<path class="st0" d="M93.1,189.8c-5.4-5.3-10.9-10.5-16.3-15.8V4.2l16.3,15.7L93.1,189.8L93.1,189.8z"/>
	<path class="st0" d="M147.9,26.9l3,0.1c1.4,0.1,2.6,0.2,3.6,0.3c0,0,4.8,0.9,8.9,3.4c10,6.1,11.2,22.2,11.4,25.6
		c0.3,3.7,0.7,10.4-2.4,18.2C171.1,78,168.2,85,161.1,90c-0.8,0.6-6.2,4.1-13.1,5c-1.6,0.2-3.6,0.3-4.2,0.3H122l10.2,12v26.2
		l-33-38.1V77h45c3.6-1.1,7.8-1.9,10.3-5.8c2.7-4.3,3.1-8.6,3-10.2c0-1.5-0.4-6.4-4.2-10.7c-2.1-2.4-4.5-3.7-6-4.3h-34.6v31.1H99
		V26.8L147.9,26.9z"/>
	<path class="st0" d="M197.3,93.6H177l-22.4,25.6v40.4l21.3,24.5h22l-38.6-45.3L197.3,93.6z"/>
</g>
<g>
	<path class="st0" d="M67.7,217.7v0.3c-0.7,0.3-1.5,0.5-2.2,0.5l-0.3-0.2c-1.6-2.5-3.1-4.9-4.4-7.2h-3.5v1.1l0.1,6H55l0.2-5.8
		L55,198.9h5.9c1.9,0,3.4,0.5,4.4,1.4c1,1,1.6,2.3,1.6,4.1c0,1.3-0.3,2.5-1,3.6s-1.7,1.9-2.9,2.5C64,212.6,65.6,215.1,67.7,217.7
		L67.7,217.7z M57.1,209l3.6,0.1c2.3-0.6,3.4-2.1,3.4-4.5c0-1.2-0.3-2.1-1-2.8c-0.7-0.6-1.7-0.9-3-1l-2.9,0.1
		C57.2,200.9,57.1,208.9,57.1,209z M75.8,213.9l0.1,4.3h-2.3l0.1-4.3V213l-5.1-9.8h2.5l0.3,0.9l3.4,6.5H75l3.7-6.4l0.4-1h2.4
		l-5.6,9.8L75.8,213.9L75.8,213.9z M95.1,218.2h-2.3l-0.4-1.6l-0.8-2.2h-6.8l-0.8,2.1l-0.4,1.7h-2.2l5.8-15h2.6L95.1,218.2
		L95.1,218.2z M91,212.6l-2.5-7.1h-0.2l-2.7,7.1H91z M111.3,213.8v4.5h-2.4l-7.9-11.5h-0.2v6.5l0.1,5h-2.1l0.1-4.4l-0.1-10.6h2.4
		l7.9,11.5h0.2l-0.1-11.4l2.1-0.2V213.8z M124.2,212.2l0.1,6h-2.4l0.1-5.8l-0.1-13.5h2.4L124.2,212.2z M127.2,208
		c2.7,3.5,5.5,6.7,8.4,9.7v0.3c-0.6,0.2-1.4,0.3-2.3,0.5l-0.3-0.2c-3.2-3.6-6-7-8.3-10.3v-0.1l6.5-7.3l1.2-1.7h2.7L127.2,208
		L127.2,208z M149.9,218.2h-2.3l-0.4-1.6l-0.8-2.2h-6.8l-0.8,2.1l-0.4,1.7h-2.2l5.8-15h2.6L149.9,218.2L149.9,218.2z M145.9,212.6
		l-2.5-7.1h-0.2l-2.7,7.1H145.9z M164.8,204.9c1.2,1.2,1.8,3,1.8,5.3c0,2.6-0.7,4.7-2,6.1s-3.2,2.1-5.7,2.1h-2.5
		c-1,0-1.9-0.1-2.8-0.1l0.1-4.5l-0.1-10.5l5.9-0.1C161.8,203.1,163.6,203.7,164.8,204.9z M163,215.1c0.9-1,1.3-2.4,1.3-4.4
		c0-1.9-0.4-3.4-1.2-4.3c-0.8-0.9-2.1-1.4-3.7-1.4c-1,0-2.1,0-3.5,0.1l-0.1,8.4v2.8c0.6,0,1.2,0.1,1.8,0.1s1.2,0.1,1.6,0.1
		C160.9,216.6,162.1,216.1,163,215.1L163,215.1z M178.8,216.6l-0.2,1.7h-8l0.1-4.5l-0.1-10.5h2.3l-0.1,10.3l0.1,2.8h5.8L178.8,216.6
		z M184.3,213.6l0.1,4.7h-2.2l0.1-4.5l-0.1-10.5h2.3L184.3,213.6L184.3,213.6z M199.6,204.1l-0.4,2.1l-0.3,0.1
		c-0.5-0.4-1.1-0.8-1.7-1c-0.7-0.2-1.4-0.4-2.1-0.4c-1.5,0-2.6,0.5-3.4,1.4c-0.8,1-1.2,2.4-1.2,4.3c0,1.9,0.4,3.4,1.2,4.4
		s1.9,1.5,3.4,1.5c0.7,0,1.5-0.1,2.2-0.4c0.7-0.3,1.4-0.6,2-1l0.3,0.1l-0.2,2.1c-1.4,0.7-2.8,1.1-4.3,1.1c-2.2,0-3.9-0.7-5.1-2
		s-1.8-3.2-1.8-5.6c0-2.5,0.6-4.4,1.9-5.7s3-2,5.3-2C196.9,203.1,198.4,203.4,199.6,204.1L199.6,204.1z M205.5,213.6l0.1,4.7h-2.2
		l0.1-4.5l-0.1-10.5h2.3L205.5,213.6L205.5,213.6z M208.2,210.2c2.1,2.6,4.4,5.1,6.8,7.5l-0.1,0.3c-0.6,0.2-1.3,0.4-2.2,0.5
		l-0.4-0.2c-2.6-2.9-4.8-5.5-6.7-8v-0.2l5.2-5.7l1-1.3h2.7C214.5,203.2,208.2,210.2,208.2,210.2z"/>
</g>
<g>
	<path class="st0" d="M15.3,231.9c1.4,1.6,2.2,3.8,2.2,6.8c0,3.3-0.7,5.9-2.2,7.7s-3.6,2.7-6.4,2.7H6.2c-1.1,0-2.1-0.1-3-0.1v-19.2
		l6.1-0.2C11.7,229.5,13.8,230.3,15.3,231.9L15.3,231.9z M14.7,245.9c1.4-1.7,2.1-4.1,2.1-7.2c0-2.8-0.7-4.9-2-6.3
		c-1.3-1.5-3.3-2.2-5.8-2.2H6.5c-1.1,0-2,0.1-2.9,0.1v18c0.8,0,1.8,0.1,2.8,0.1h2.4C11.3,248.5,13.3,247.6,14.7,245.9L14.7,245.9z
		 M30,248.4l-0.1,0.5h-7.8v-14.8h7.7l0.1,0.1l-0.1,0.5h-7.1v6.3h5.9l0.1,0.1l-0.1,0.5h-5.9v6.8L30,248.4L30,248.4z M41.1,234.7
		l-0.1,0.5h-0.2c-0.9-0.4-1.8-0.7-2.8-0.7c-0.8,0-1.5,0.2-2.1,0.5s-1,0.7-1.3,1.2s-0.5,1-0.5,1.5s0.2,1,0.5,1.4s0.7,0.7,1.1,1
		c0.4,0.3,1.1,0.6,1.9,0.9c0.9,0.4,1.6,0.7,2.1,1.1c0.5,0.3,1,0.7,1.4,1.2s0.6,1.1,0.6,1.8s-0.2,1.3-0.6,1.9
		c-0.4,0.6-0.9,1.1-1.7,1.4c-0.7,0.4-1.5,0.5-2.4,0.5c-0.6,0-1.3-0.1-2-0.3s-1.3-0.5-1.8-0.8v-0.6h0.2c0.5,0.4,1.1,0.6,1.7,0.8
		c0.7,0.2,1.3,0.3,1.9,0.3c0.8,0,1.5-0.2,2.1-0.5s1.1-0.7,1.4-1.2c0.3-0.5,0.5-1,0.5-1.6s-0.2-1-0.5-1.5c-0.3-0.4-0.7-0.8-1.2-1
		c-0.5-0.3-1.1-0.6-1.9-1c-0.9-0.4-1.5-0.8-2.1-1.1c-0.5-0.3-0.9-0.7-1.3-1.2s-0.5-1-0.5-1.7s0.2-1.3,0.6-1.8c0.4-0.6,0.9-1,1.6-1.3
		c0.7-0.3,1.5-0.5,2.3-0.5C39,234,40.1,234.3,41.1,234.7L41.1,234.7z M47.3,248.9h-0.6v-14.8h0.6V248.9z M61.2,234.3
		c0.8,0.2,1.5,0.5,2.2,0.9l-0.2,0.5H63c-1.5-0.8-2.9-1.2-4.1-1.2c-2.2,0-3.8,0.6-5,1.8s-1.7,3-1.7,5.3c0,2.2,0.5,3.9,1.5,5
		c1,1.2,2.4,1.7,4.3,1.7c0.8,0,1.5,0,2.1-0.1s1.5-0.3,2.5-0.5v-4.4l0.6-0.1v4.9c-1.1,0.3-2.1,0.5-2.8,0.6s-1.5,0.2-2.4,0.2
		c-2.1,0-3.7-0.6-4.8-1.9c-1.1-1.3-1.7-3.1-1.7-5.5c0-2.5,0.6-4.3,1.9-5.7c1.3-1.3,3.1-2,5.4-2C59.7,234,60.4,234.1,61.2,234.3z
		 M80.4,244.8v4.1h-0.7l-9.8-13.6h-0.1v13.6h-0.6v-14.8h0.6l9.8,13.6h0.1v-13.6l0.6-0.1L80.4,244.8L80.4,244.8z M94.8,248.4
		l-0.1,0.5h-7.8v-14.8h7.7l0.1,0.1l-0.1,0.5h-7.1v6.3h5.9l0.1,0.1l-0.1,0.5h-5.9v6.8L94.8,248.4L94.8,248.4z M108.3,248.8v0.1
		l-0.4,0.2l-0.2-0.1c-1.7-2.1-3.2-4.2-4.5-6.2h-3.3v6.1h-0.6v-14.8h3.6c1.4,0,2.6,0.4,3.3,1.1c0.8,0.7,1.2,1.7,1.2,3
		c0,1.1-0.3,2.1-0.9,2.9c-0.6,0.8-1.5,1.4-2.7,1.7C105.1,244.7,106.6,246.7,108.3,248.8L108.3,248.8z M99.9,242.3h3.5
		c1.1-0.3,1.9-0.7,2.5-1.5c0.6-0.7,0.9-1.6,0.9-2.7s-0.3-2-1-2.6c-0.6-0.6-1.6-0.9-2.8-1h-3.1V242.3L99.9,242.3z M140.8,238.1
		c-0.4,0.9-0.8,1.6-1.3,2s-1.2,0.6-2.1,0.7c-0.7,0-1.9-0.2-3.7-0.6c0.1,1.8-0.3,3.4-1,4.7c-0.7,1.4-1.7,2.4-3.1,3.2
		c-1.3,0.7-2.9,1.1-4.7,1.1c-1.5,0-2.9-0.3-4-1s-2.1-1.6-2.7-2.9c-0.6-1.2-1-2.7-1-4.3c0-1.3,0.2-2.6,0.7-3.6
		c0.5-1.1,1.1-1.9,1.9-2.5s1.7-0.9,2.6-0.9s1.7,0.2,2.2,0.7c0.6,0.5,0.8,1,0.8,1.8c0,0.6-0.2,1.2-0.6,1.8c2.1-1.4,4-3.1,5.6-4.9
		c1.6-1.9,2.9-3.8,3.8-5.8h0.1c0.1,0.2,0.2,0.4,0.2,0.6c-1,2.1-2.3,4.1-4.1,6c-1.7,1.9-3.7,3.6-5.9,5.1c-2.2,1.5-4.5,2.6-6.9,3.3
		c0.3,1.9,1,3.4,2.3,4.4c1.2,1.1,2.8,1.6,4.7,1.6c1.7,0,3.2-0.4,4.4-1.1c1.2-0.7,2.2-1.7,2.9-3s0.9-2.8,0.9-4.4
		c-1.2-0.3-2-0.4-2.5-0.4c-0.7,0-1.3,0.2-1.8,0.6c-0.5,0.4-0.8,1-1.1,1.8l-0.2,0.1l-0.4-0.3c0.4-0.9,0.8-1.6,1.3-2s1.2-0.6,2.1-0.7
		c0.3,0,0.8,0.1,1.4,0.2c0.6,0.1,1.2,0.2,1.8,0.4c0.7,0.1,1.3,0.3,2,0.4c0.7,0.1,1.2,0.2,1.6,0.2c0.7,0,1.3-0.2,1.8-0.6
		c0.5-0.4,0.8-1,1.1-1.8l0.2-0.1L140.8,238.1L140.8,238.1z M120.2,235.4c-0.7,0.5-1.3,1.3-1.7,2.3s-0.6,2.1-0.6,3.4v0.9
		c2-0.7,3.9-1.6,5.8-2.7c0.5-0.4,0.9-0.9,1.1-1.4s0.3-0.9,0.2-1.4c0-0.5-0.3-1-0.7-1.3s-1-0.5-1.7-0.5
		C121.7,234.6,120.9,234.8,120.2,235.4L120.2,235.4z M160.3,231.9c1.4,1.6,2.2,3.8,2.2,6.8c0,3.3-0.7,5.9-2.2,7.7s-3.6,2.7-6.4,2.7
		h-2.7c-1.1,0-2.1-0.1-3-0.1v-19.2l6.1-0.2C156.8,229.5,158.8,230.3,160.3,231.9z M159.8,245.9c1.4-1.7,2.1-4.1,2.1-7.2
		c0-2.8-0.7-4.9-2-6.3c-1.3-1.5-3.3-2.2-5.8-2.2h-2.5c-1.1,0-2,0.1-2.9,0.1v18c0.8,0,1.8,0.1,2.8,0.1h2.4
		C156.4,248.5,158.4,247.6,159.8,245.9L159.8,245.9z M175.1,248.4l-0.1,0.5h-7.8v-14.8h7.7l0.1,0.1l-0.1,0.5h-7.1v6.3h5.9l0.1,0.1
		l-0.1,0.5h-5.9v6.8L175.1,248.4L175.1,248.4z M183.7,248.9h-0.6l-5.7-14.8h0.7l0.3,1.1l5,12.8h0.1l5.4-12.8l0.4-1.1h0.7
		L183.7,248.9z M202,248.4l-0.1,0.5h-7.8v-14.8h7.7l0.1,0.1l-0.1,0.5h-7.1v6.3h5.9l0.1,0.1l-0.1,0.5h-5.9v6.8L202,248.4L202,248.4z
		 M213.6,248.4l-0.1,0.5h-7v-14.8h0.6v14.2L213.6,248.4z M226.3,235.9c1.1,1.3,1.7,3.1,1.7,5.4c0,2.5-0.6,4.4-1.7,5.8
		c-1.2,1.3-2.8,2-5,2c-2.1,0-3.7-0.6-4.8-1.9c-1.1-1.3-1.7-3.1-1.7-5.5s0.6-4.3,1.7-5.6c1.2-1.3,2.8-2,5-2
		C223.6,234,225.2,234.6,226.3,235.9z M217,236.4c-1,1.2-1.6,2.9-1.6,5.2s0.5,4,1.5,5.2s2.4,1.8,4.3,1.8c2,0,3.5-0.6,4.5-1.8
		c1.1-1.2,1.6-3,1.6-5.3c0-2.2-0.5-3.8-1.5-5s-2.5-1.7-4.4-1.7C219.5,234.6,218,235.2,217,236.4z M239.9,235.1
		c0.8,0.7,1.2,1.7,1.2,3.1c0,1.6-0.5,2.8-1.4,3.7s-2.2,1.3-4,1.3h-2.2v5.7h-0.6v-14.8h3.6C238,234.1,239.1,234.4,239.9,235.1z
		 M239.4,241.3c0.7-0.8,1-1.8,1-3c0-1.1-0.3-2-1-2.6c-0.6-0.6-1.6-1-2.8-1h-3.1v8h2.9C237.8,242.5,238.8,242,239.4,241.3z
		 M254.1,248.4l-0.1,0.5h-7.8v-14.8h7.7l0.1,0.1l-0.1,0.5h-7.1v6.3h5.9l0.1,0.1l-0.1,0.5h-5.9v6.8L254.1,248.4L254.1,248.4z
		 M267.6,248.8v0.1l-0.4,0.2L267,249c-1.7-2.1-3.2-4.2-4.5-6.2h-3.3v6.1h-0.6v-14.8h3.6c1.4,0,2.6,0.4,3.3,1.1
		c0.8,0.7,1.2,1.7,1.2,3c0,1.1-0.3,2.1-0.9,2.9c-0.6,0.8-1.5,1.4-2.7,1.7C264.4,244.7,265.9,246.7,267.6,248.8z M259.2,242.3h3.5
		c1.1-0.3,1.9-0.7,2.5-1.5c0.6-0.7,0.9-1.6,0.9-2.7s-0.3-2-1-2.6c-0.6-0.6-1.6-0.9-2.8-1h-3.1V242.3z"/>
</g>
</svg>
